<svg xmlns="http://www.w3.org/2000/svg" width="185.766" height="50" viewBox="0 0 185.766 50">
  <g id="Group_333" data-name="Group 333" transform="translate(-80 -41)">
    <g id="Group_1" data-name="Group 1" transform="translate(139.956 83.396)">
      <path id="Path_1" data-name="Path 1" d="M87.794,65.962h-.523v-.849h.523v-.92L88.85,63.8v1.309h1.242v.849H88.85v1.98a1.169,1.169,0,0,0,.153.686.626.626,0,0,0,.532.2,1.31,1.31,0,0,0,.709-.207v.971a3.357,3.357,0,0,1-1.048.127,1.366,1.366,0,0,1-1.039-.382,1.517,1.517,0,0,1-.363-1.087Z" transform="translate(-87.271 -63.804)" fill="#fff"/>
      <path id="Path_2" data-name="Path 2" d="M95.042,66.638a1.109,1.109,0,0,0-.62-.185.841.841,0,0,0-.652.333,1.211,1.211,0,0,0-.285.815v2.576H92.429V65.655h1.055v.414a1.5,1.5,0,0,1,1.178-.5,1.69,1.69,0,0,1,.828.165Z" transform="translate(-88.853 -64.346)" fill="#fff"/>
      <path id="Path_3" data-name="Path 3" d="M100.359,70.219v-.381a1.9,1.9,0,0,1-.616.325,2.235,2.235,0,0,1-.722.135q-1.574,0-1.575-1.672V65.692H98.5v2.855q0,.87.781.869a1.268,1.268,0,0,0,.668-.186.938.938,0,0,0,.409-.431V65.692h1.056v4.527Z" transform="translate(-90.392 -64.383)" fill="#fff"/>
      <path id="Path_4" data-name="Path 4" d="M104.094,69.886l.376-.84a1.671,1.671,0,0,0,1.068.376q.617,0,.617-.44a.541.541,0,0,0-.186-.422,2.885,2.885,0,0,0-.722-.388q-1.17-.486-1.17-1.359a1.065,1.065,0,0,1,.448-.914,1.891,1.891,0,0,1,1.145-.328,2.883,2.883,0,0,1,1.326.317l-.3.819a1.438,1.438,0,0,0-.963-.3q-.553,0-.553.44a.393.393,0,0,0,.182.312,3.729,3.729,0,0,0,.777.374,1.989,1.989,0,0,1,.857.568,1.265,1.265,0,0,1,.262.806,1.182,1.182,0,0,1-.467.99,2.019,2.019,0,0,1-1.269.361,2.859,2.859,0,0,1-.724-.074A3.528,3.528,0,0,1,104.094,69.886Z" transform="translate(-92.426 -64.346)" fill="#fff"/>
      <path id="Path_5" data-name="Path 5" d="M109.563,65.962h-.523v-.849h.523v-.92l1.056-.389v1.309h1.242v.849h-1.242v1.98a1.169,1.169,0,0,0,.153.686.627.627,0,0,0,.532.2,1.311,1.311,0,0,0,.71-.207v.971a3.36,3.36,0,0,1-1.048.127,1.367,1.367,0,0,1-1.039-.382,1.517,1.517,0,0,1-.363-1.087Z" transform="translate(-93.948 -63.804)" fill="#fff"/>
    </g>
    <g id="Group_2" data-name="Group 2" transform="translate(174.069 82.767)">
      <path id="Path_6" data-name="Path 6" d="M139.506,68.238h-3.23a1.146,1.146,0,0,0,.372.841,1.347,1.347,0,0,0,.92.3,1.485,1.485,0,0,0,1.1-.376l.41.806a2.6,2.6,0,0,1-1.664.452,2.2,2.2,0,0,1-1.636-.606,2.3,2.3,0,0,1-.6-1.691,2.349,2.349,0,0,1,.661-1.732A2.317,2.317,0,0,1,139,66.157a2.008,2.008,0,0,1,.6,1.495A2.949,2.949,0,0,1,139.506,68.238Zm-3.193-.794h2.221a.991.991,0,0,0-1.1-.991A1.087,1.087,0,0,0,136.314,67.445Z" transform="translate(-135.174 -63.717)" fill="#fff"/>
      <path id="Path_7" data-name="Path 7" d="M145.119,70.214l-1.161-1.474-1.043,1.474h-1.25L143.4,67.9l-1.6-2.209h1.212l.955,1.381,1.063-1.381h1.2L144.5,67.9l1.9,2.313Z" transform="translate(-137.165 -63.754)" fill="#fff"/>
      <path id="Path_8" data-name="Path 8" d="M152.449,66.014,152,66.8a1.392,1.392,0,0,0-1-.35,1.193,1.193,0,0,0-.948.4,1.624,1.624,0,0,0-.349,1.1q0,1.423,1.355,1.423a1.536,1.536,0,0,0,1.036-.388l.388.831a2.657,2.657,0,0,1-.8.363,3.815,3.815,0,0,1-.813.076,2.224,2.224,0,0,1-1.653-.61,2.3,2.3,0,0,1-.606-1.7,2.33,2.33,0,0,1,.663-1.728,2.453,2.453,0,0,1,1.807-.659A2.2,2.2,0,0,1,152.449,66.014Z" transform="translate(-139.294 -63.717)" fill="#fff"/>
      <path id="Path_9" data-name="Path 9" d="M159.01,68.238h-3.23a1.146,1.146,0,0,0,.372.841,1.347,1.347,0,0,0,.92.3,1.485,1.485,0,0,0,1.1-.376l.41.806a2.6,2.6,0,0,1-1.665.452,2.2,2.2,0,0,1-1.636-.606,2.3,2.3,0,0,1-.6-1.691,2.349,2.349,0,0,1,.661-1.732,2.317,2.317,0,0,1,3.165-.076,2.008,2.008,0,0,1,.6,1.495A2.949,2.949,0,0,1,159.01,68.238Zm-3.193-.794h2.222a.992.992,0,0,0-1.1-.991A1.087,1.087,0,0,0,155.818,67.445Z" transform="translate(-141.156 -63.717)" fill="#fff"/>
      <path id="Path_10" data-name="Path 10" d="M162.224,63.15l1.055-.253v5.084q0,.835.5,1a.868.868,0,0,1-.836.464q-.718,0-.718-1Z" transform="translate(-143.471 -62.897)" fill="#fff"/>
      <path id="Path_11" data-name="Path 11" d="M165.59,63.15l1.056-.253v5.084q0,.835.5,1a.867.867,0,0,1-.835.464q-.718,0-.718-1Z" transform="translate(-144.504 -62.897)" fill="#fff"/>
      <path id="Path_12" data-name="Path 12" d="M172.6,68.238h-3.23a1.151,1.151,0,0,0,.371.841,1.351,1.351,0,0,0,.921.3,1.485,1.485,0,0,0,1.1-.376l.41.806a2.6,2.6,0,0,1-1.664.452,2.2,2.2,0,0,1-1.636-.606,2.3,2.3,0,0,1-.6-1.691,2.346,2.346,0,0,1,.661-1.732,2.318,2.318,0,0,1,3.165-.076,2.009,2.009,0,0,1,.594,1.495A2.936,2.936,0,0,1,172.6,68.238Zm-3.192-.794h2.221a.992.992,0,0,0-1.1-.991A1.086,1.086,0,0,0,169.409,67.445Z" transform="translate(-145.325 -63.717)" fill="#fff"/>
      <path id="Path_13" data-name="Path 13" d="M178.461,70.177V67.563a1.311,1.311,0,0,0-.221-.844.894.894,0,0,0-.724-.266,1.114,1.114,0,0,0-.5.13,1.142,1.142,0,0,0-.412.326v3.267h-1.056V65.655h.76l.195.422a1.576,1.576,0,0,1,1.271-.507,1.687,1.687,0,0,1,1.273.484,1.86,1.86,0,0,1,.467,1.349v2.774Z" transform="translate(-147.559 -63.717)" fill="#fff"/>
      <path id="Path_14" data-name="Path 14" d="M186.019,66.014l-.451.79a1.394,1.394,0,0,0-1-.35,1.193,1.193,0,0,0-.948.4,1.624,1.624,0,0,0-.349,1.1q0,1.423,1.355,1.423a1.533,1.533,0,0,0,1.035-.388l.388.831a2.665,2.665,0,0,1-.8.363,3.815,3.815,0,0,1-.813.076,2.224,2.224,0,0,1-1.653-.61,2.3,2.3,0,0,1-.606-1.7,2.33,2.33,0,0,1,.663-1.728,2.452,2.452,0,0,1,1.807-.659A2.2,2.2,0,0,1,186.019,66.014Z" transform="translate(-149.591 -63.717)" fill="#fff"/>
      <path id="Path_15" data-name="Path 15" d="M192.58,68.238h-3.23a1.148,1.148,0,0,0,.371.841,1.35,1.35,0,0,0,.921.3,1.485,1.485,0,0,0,1.1-.376l.41.806a2.6,2.6,0,0,1-1.664.452,2.2,2.2,0,0,1-1.636-.606,2.3,2.3,0,0,1-.6-1.691,2.346,2.346,0,0,1,.661-1.732,2.317,2.317,0,0,1,3.165-.076,2.007,2.007,0,0,1,.595,1.495A2.934,2.934,0,0,1,192.58,68.238Zm-3.192-.794h2.222a.992.992,0,0,0-1.1-.991A1.087,1.087,0,0,0,189.388,67.445Z" transform="translate(-151.453 -63.717)" fill="#fff"/>
    </g>
    <g id="Group_3" data-name="Group 3" transform="translate(231.435 84.358)">
      <path id="Path_16" data-name="Path 16" d="M216.387,69.886l.376-.84a1.67,1.67,0,0,0,1.068.376q.618,0,.617-.44a.541.541,0,0,0-.185-.422,2.879,2.879,0,0,0-.723-.388q-1.169-.486-1.17-1.359a1.065,1.065,0,0,1,.448-.914,1.889,1.889,0,0,1,1.145-.328,2.885,2.885,0,0,1,1.326.317l-.3.819a1.439,1.439,0,0,0-.963-.3q-.553,0-.553.44a.393.393,0,0,0,.182.312,3.729,3.729,0,0,0,.777.374,1.99,1.99,0,0,1,.857.568,1.269,1.269,0,0,1,.262.806,1.181,1.181,0,0,1-.467.99,2.017,2.017,0,0,1-1.269.361,2.859,2.859,0,0,1-.724-.074A3.511,3.511,0,0,1,216.387,69.886Z" transform="translate(-216.37 -65.308)" fill="#fff"/>
      <path id="Path_17" data-name="Path 17" d="M223.616,70.941a1.457,1.457,0,0,1-.724.749,2.7,2.7,0,0,1-1.294.3v-.933q1.221,0,1.22-.612a3.755,3.755,0,0,0-.338-1.242l-1.414-3.509h1.094l1.233,3.125,1.111-3.125H225.6Z" transform="translate(-217.81 -65.345)" fill="#fff"/>
      <path id="Path_18" data-name="Path 18" d="M231.111,70.177V67.563a1.315,1.315,0,0,0-.221-.844.894.894,0,0,0-.724-.266,1.119,1.119,0,0,0-.5.13,1.14,1.14,0,0,0-.411.326v3.267H228.2V65.655h.76l.195.422a1.576,1.576,0,0,1,1.271-.507,1.688,1.688,0,0,1,1.273.484,1.863,1.863,0,0,1,.467,1.349v2.774Z" transform="translate(-219.999 -65.308)" fill="#fff"/>
      <path id="Path_19" data-name="Path 19" d="M239.16,68.238h-3.231a1.149,1.149,0,0,0,.372.841,1.349,1.349,0,0,0,.921.3,1.487,1.487,0,0,0,1.1-.376l.41.806a2.6,2.6,0,0,1-1.664.452,2.2,2.2,0,0,1-1.636-.606,2.3,2.3,0,0,1-.6-1.691,2.347,2.347,0,0,1,.661-1.732,2.317,2.317,0,0,1,3.165-.076,2.007,2.007,0,0,1,.595,1.495A2.935,2.935,0,0,1,239.16,68.238Zm-3.192-.794h2.221a.992.992,0,0,0-1.1-.991A1.086,1.086,0,0,0,235.967,67.445Z" transform="translate(-222.031 -65.308)" fill="#fff"/>
      <path id="Path_20" data-name="Path 20" d="M244.724,66.638a1.109,1.109,0,0,0-.62-.185.841.841,0,0,0-.652.333,1.211,1.211,0,0,0-.285.815v2.576H242.11V65.655h1.056v.414a1.5,1.5,0,0,1,1.178-.5,1.69,1.69,0,0,1,.828.165Z" transform="translate(-224.265 -65.308)" fill="#fff"/>
      <path id="Path_21" data-name="Path 21" d="M246.632,71.222l.666-.824a1.782,1.782,0,0,0,1.233.507,1.81,1.81,0,0,0,.751-.135c.2-.09.3-.214.3-.372q0-.4-.655-.4a4.749,4.749,0,0,0-.528.042,4.748,4.748,0,0,1-.528.042q-1.09,0-1.09-.781a.68.68,0,0,1,.182-.44,1.114,1.114,0,0,1,.422-.317,1.6,1.6,0,0,1-.773-1.423,1.541,1.541,0,0,1,.532-1.2,1.9,1.9,0,0,1,1.31-.474,2.064,2.064,0,0,1,1.016.227l.415-.482.731.663-.5.368a1.835,1.835,0,0,1-.209,2.172,1.626,1.626,0,0,1-1.188.462,2.931,2.931,0,0,1-.3-.021l-.173-.025a1.111,1.111,0,0,0-.226.09c-.131.061-.2.123-.2.189,0,.112.1.169.292.169a2.534,2.534,0,0,0,.439-.064,2.68,2.68,0,0,1,.528-.063q1.541,0,1.541,1.237A1.213,1.213,0,0,1,250,71.444a2.722,2.722,0,0,1-1.486.39A3.111,3.111,0,0,1,246.632,71.222Zm1.055-4.1a.915.915,0,0,0,.222.644.766.766,0,0,0,.6.243.719.719,0,0,0,.579-.236.97.97,0,0,0,.2-.65.822.822,0,0,0-.218-.578.728.728,0,0,0-.564-.236.781.781,0,0,0-.819.815Z" transform="translate(-225.646 -65.192)" fill="#fff"/>
      <path id="Path_22" data-name="Path 22" d="M254.836,70.941a1.451,1.451,0,0,1-.724.749,2.7,2.7,0,0,1-1.294.3v-.933q1.22,0,1.219-.612A3.767,3.767,0,0,0,253.7,69.2l-1.414-3.509h1.093l1.233,3.125,1.11-3.125h1.093Z" transform="translate(-227.386 -65.345)" fill="#fff"/>
    </g>
    <rect id="Rectangle_2" data-name="Rectangle 2" width="2.994" height="2.994" transform="translate(221.686 85.494)" fill="#fff"/>
    <rect id="Rectangle_3" data-name="Rectangle 3" width="2.993" height="2.994" transform="translate(164.405 85.494)" fill="#fff"/>
    <rect id="Rectangle_4" data-name="Rectangle 4" width="128.291" height="0.717" transform="translate(136.954 80.103)" fill="#fff"/>
    <g id="Group_4" data-name="Group 4" transform="translate(257.505 73.033)">
      <path id="Path_23" data-name="Path 23" d="M254.378,53.6V51.042h-.4v-.605h1.151V53.6Zm.381-4.388a.431.431,0,1,1-.3.126A.413.413,0,0,1,254.759,49.211Z" transform="translate(-253.974 -49.211)" fill="#fff"/>
      <path id="Path_24" data-name="Path 24" d="M258.69,54.115V52.287a.913.913,0,0,0-.155-.591.624.624,0,0,0-.506-.186.886.886,0,0,0-.634.319v2.285h-.739V50.953h.532l.136.3a1.1,1.1,0,0,1,.889-.354,1.18,1.18,0,0,1,.89.338,1.3,1.3,0,0,1,.326.943v1.94Z" transform="translate(-254.796 -49.727)" fill="#fff"/>
      <path id="Path_25" data-name="Path 25" d="M263.974,51.2l-.315.552a.975.975,0,0,0-.7-.245.838.838,0,0,0-.663.279,1.137,1.137,0,0,0-.243.772q0,1,.948.995a1.071,1.071,0,0,0,.723-.271l.271.582a1.846,1.846,0,0,1-.562.253,2.63,2.63,0,0,1-.569.053,1.558,1.558,0,0,1-1.156-.426,1.611,1.611,0,0,1-.424-1.185,1.63,1.63,0,0,1,.463-1.208,1.715,1.715,0,0,1,1.264-.46A1.54,1.54,0,0,1,263.974,51.2Z" transform="translate(-256.217 -49.727)" fill="#fff"/>
    </g>
    <g id="Group_5" data-name="Group 5" transform="translate(187.083 58.674)">
      <path id="Path_26" data-name="Path 26" d="M166.8,30.477l-1.364,2.614a6.524,6.524,0,0,0-1.775-1.019,5.479,5.479,0,0,0-2.063-.507,5.314,5.314,0,0,0-4.265,1.832,7.306,7.306,0,0,0-1.563,4.908,6.849,6.849,0,0,0,1.532,4.678,5.257,5.257,0,0,0,4.171,1.751,4.291,4.291,0,0,0,2.864-.95v-3.6H161.8V37.407h5.791v8.2a8.351,8.351,0,0,1-3,1.482,13.037,13.037,0,0,1-3.645.532,7.954,7.954,0,0,1-6.247-2.583,9.851,9.851,0,0,1-2.308-6.822,9.6,9.6,0,0,1,2.514-6.892,8.88,8.88,0,0,1,6.766-2.651A7.644,7.644,0,0,1,166.8,30.477Z" transform="translate(-152.394 -28.665)" fill="#fff"/>
      <path id="Path_27" data-name="Path 27" d="M187.869,47.367l-4.89-7.566q-.738-.014-2.063-.088v7.654h-3.377V29.045q.275,0,2.113-.094t2.964-.094q6.98,0,6.98,5.4a4.962,4.962,0,0,1-.964,2.965,5.2,5.2,0,0,1-2.426,1.888l5.416,8.255Zm-6.953-15.5v5.091q.9.075,1.375.075a5.931,5.931,0,0,0,2.983-.575,2.413,2.413,0,0,0,.944-2.239,1.954,1.954,0,0,0-1.014-1.888,7.13,7.13,0,0,0-3.189-.538A8.4,8.4,0,0,0,180.916,31.871Z" transform="translate(-160.107 -28.72)" fill="#fff"/>
      <path id="Path_28" data-name="Path 28" d="M197.92,37.988a10.331,10.331,0,0,1,2.146-6.622,6.939,6.939,0,0,1,5.734-2.707,7.5,7.5,0,0,1,6.04,2.451,10.29,10.29,0,0,1,2.089,6.879,10.594,10.594,0,0,1-2.182,7.03,7.641,7.641,0,0,1-6.2,2.6,6.7,6.7,0,0,1-5.66-2.576A11.355,11.355,0,0,1,197.92,37.988Zm3.377,0a9.5,9.5,0,0,0,1.088,4.978,3.5,3.5,0,0,0,3.164,1.764A4.349,4.349,0,0,0,209.27,43a8.323,8.323,0,0,0,1.282-5.016q0-6.44-4.752-6.44a3.774,3.774,0,0,0-3.339,1.744A8.355,8.355,0,0,0,201.3,37.988Z" transform="translate(-166.358 -28.659)" fill="#fff"/>
      <path id="Path_29" data-name="Path 29" d="M224.238,29.128h3.252V41.547a3.142,3.142,0,0,0,3.377,3.327,3.892,3.892,0,0,0,2.745-.907,3.212,3.212,0,0,0,.982-2.483V29.128h3.252V41.735a5.484,5.484,0,0,1-1.895,4.427,7.582,7.582,0,0,1-5.059,1.6A7.092,7.092,0,0,1,225.97,46.2a5.721,5.721,0,0,1-1.732-4.477Z" transform="translate(-174.431 -28.803)" fill="#fff"/>
      <path id="Path_30" data-name="Path 30" d="M251.606,40.654v6.741h-3.252V29.085q3.252-.137,3.8-.138,4.341,0,6.347,1.332a4.635,4.635,0,0,1,2.008,4.158q0,6.3-7.429,6.3Q252.531,40.741,251.606,40.654Zm0-8.755v5.866q.826.087,1.3.087a5.6,5.6,0,0,0,3.251-.744,2.787,2.787,0,0,0,1.026-2.42q0-2.851-4.59-2.851A7.71,7.71,0,0,0,251.606,31.9Z" transform="translate(-181.828 -28.747)" fill="#fff"/>
    </g>
    <g id="Group_7" data-name="Group 7" transform="translate(134.949 44.567)">
      <g id="Group_6" data-name="Group 6">
        <path id="Path_31" data-name="Path 31" d="M80.154,33.721V16.986a8.212,8.212,0,0,1,2.046-5.74,7.038,7.038,0,0,1,5.485-2.255h13.664v4.695H88.29q-3.441,0-3.441,3.44V33.349a3.391,3.391,0,0,0,1,2.463,3.281,3.281,0,0,0,2.44,1.023h12.968V41.53H87.313a7.375,7.375,0,0,1-4.092-1.395Q80.155,38.09,80.154,33.721Z" transform="translate(-80.154 -8.992)" fill="#fff"/>
      </g>
    </g>
    <g id="Group_9" data-name="Group 9" transform="translate(163.229 44.567)">
      <g id="Group_8" data-name="Group 8">
        <path id="Path_32" data-name="Path 32" d="M120.187,41.53V31.469q0-4.126,2.61-6.166a7.284,7.284,0,0,1,4.522-1.762h6.806a2.106,2.106,0,0,0,1.305-.513A1.669,1.669,0,0,0,136.177,22a1.849,1.849,0,0,0,.186-.839V15.929a2.292,2.292,0,0,0-1.82-2.149,3.3,3.3,0,0,0-.557-.093h-13.8V8.992H133.62q4.184,0,6.136,2.881a6.726,6.726,0,0,1,1.3,3.812v5.485a6.492,6.492,0,0,1-3.02,5.763,7.062,7.062,0,0,1-3.952,1.3h-6.229q-2.884,0-2.882,2.788v5.81h16.082V41.53Z" transform="translate(-120.187 -8.992)" fill="#fff"/>
      </g>
    </g>
    <rect id="Rectangle_5" data-name="Rectangle 5" width="4.091" height="26.583" transform="translate(157.672 50.872)" fill="#fff"/>
    <rect id="Rectangle_6" data-name="Rectangle 6" width="4.032" height="4.692" transform="translate(157.7 44.568)" fill="#fff"/>
    <g id="Group_10" data-name="Group 10" transform="translate(80 46.667)">
      <path id="Path_33" data-name="Path 33" d="M11.012,43.56V25.208L7.281,27.35l-.072-2.205L2.376,39.2l4.892,8.517-.112-1.942Z" transform="translate(-2.376 -16.046)" fill="#fff"/>
      <path id="Path_34" data-name="Path 34" d="M15.879,20.94V39.293l15.513-8.912.017-18.361Z" transform="translate(-6.518 -12.021)" fill="#fff"/>
    </g>
    <g id="Group_11" data-name="Group 11" transform="translate(104.452 41)">
      <path id="Path_35" data-name="Path 35" d="M39.388,8.661,55.3,17.826V14l1.949,1.036L47.469,3.847H37.647l1.741.871Z" transform="translate(-37.647 -3.847)" fill="#fff"/>
      <path id="Path_36" data-name="Path 36" d="M40.159,11.983V30.376l15.913,9.158V21.148Z" transform="translate(-38.418 -6.342)" fill="#fff"/>
    </g>
    <g id="Group_12" data-name="Group 12" transform="translate(89.643 66.849)">
      <path id="Path_37" data-name="Path 37" d="M47.554,48.818,32.177,39.937l-15.891,9.2,15.361,8.872Z" transform="translate(-16.285 -39.937)" fill="#fff"/>
      <path id="Path_38" data-name="Path 38" d="M59.132,55.782l-3.966-2.29L39.259,62.682l3.873,2.238-1.871,1.169,14.581-2.873,4.912-8.505Z" transform="translate(-23.332 -44.095)" fill="#fff"/>
    </g>
  </g>
</svg>
