<svg xmlns="http://www.w3.org/2000/svg" width="82.317" height="83.679" viewBox="0 0 82.317 83.679">
  <g id="Group_346" data-name="Group 346" transform="translate(-80 -41)">
    <g id="Group_343" data-name="Group 343" transform="translate(80 50.911)">
      <path id="Path_33" data-name="Path 33" d="M17.479,57.354v-32.1L10.955,29l-.127-3.857L2.376,49.727l8.556,14.9-.2-3.4Z" transform="translate(-2.376 -9.231)" fill="#0063a4"/>
      <path id="Path_34" data-name="Path 34" d="M15.879,27.621v32.1L43.011,44.134l.029-32.113Z" transform="translate(0.493 -12.021)" fill="#0063a4"/>
    </g>
    <g id="Group_344" data-name="Group 344" transform="translate(122.768 41)">
      <path id="Path_35" data-name="Path 35" d="M40.692,12.267,68.524,28.3V21.607l3.408,1.812L54.826,3.847H37.647l3.045,1.523Z" transform="translate(-37.647 -3.847)" fill="#0063a4"/>
      <path id="Path_36" data-name="Path 36" d="M40.159,11.983v32.17L67.991,60.171V28.013Z" transform="translate(-37.114 -2.117)" fill="#0063a4"/>
    </g>
    <g id="Group_345" data-name="Group 345" transform="translate(96.865 86.211)">
      <path id="Path_37" data-name="Path 37" d="M70.975,55.471l-26.9-15.534L16.285,56.027,43.151,71.544Z" transform="translate(-16.285 -39.937)" fill="#0063a4"/>
      <path id="Path_38" data-name="Path 38" d="M74.017,57.5l-6.936-4.006L39.259,69.567l6.774,3.914-3.272,2.044,25.5-5.025,8.592-14.876Z" transform="translate(-11.402 -37.056)" fill="#0063a4"/>
    </g>
  </g>
</svg>
