<svg xmlns="http://www.w3.org/2000/svg" width="113.31" height="20.013" viewBox="0 0 113.31 20.013">
  <g id="veeam-software-vector-logo" transform="translate(0)">
    <path id="Path_40" data-name="Path 40" d="M502.284,270.924a2.623,2.623,0,0,0-3.021,1.378l-7.458,14.537a1.192,1.192,0,0,1-1.076.661h0a1.227,1.227,0,0,1-1.076-.661l-7.476-14.519a2.655,2.655,0,0,0-3.021-1.378,2.686,2.686,0,0,0-2.058,2.643v15.293a1.3,1.3,0,1,0,2.605,0h0V273.322c0-.057-.019-.132.076-.17s.113.057.132.113l7.458,14.575a3.8,3.8,0,0,0,6.778,0l7.439-14.556c.019-.057.057-.132.132-.113s.076.113.076.17v15.538a1.3,1.3,0,1,0,2.605,0V273.567A2.844,2.844,0,0,0,502.284,270.924Z" transform="translate(-391.089 -270.49)" fill="#707070"/>
    <path id="Path_41" data-name="Path 41" d="M43.277,271.13a1.283,1.283,0,0,0-1.737.529v.019l-8.156,15.746a.809.809,0,0,1-.623.491.782.782,0,0,1-.623-.491l-8.156-15.746a1.286,1.286,0,0,0-1.718-.566c-.019,0-.019.019-.038.019a1.329,1.329,0,0,0-.548,1.775l8.137,15.519a3.255,3.255,0,0,0,5.891,0L43.881,272.9A1.419,1.419,0,0,0,43.277,271.13Z" transform="translate(-21.534 -270.601)" fill="#707070"/>
    <path id="Path_42" data-name="Path 42" d="M146.8,269a10.009,10.009,0,0,0,0,20.013,9.784,9.784,0,0,0,7.873-4.04,1.3,1.3,0,0,0-2.058-1.586.018.018,0,0,1-.019.019,7.252,7.252,0,0,1-5.8,3.077,7.387,7.387,0,0,1-7.118-6.174h15.633a1.318,1.318,0,0,0,1.284-1.322A9.916,9.916,0,0,0,146.8,269Zm-7.118,8.93c.6-3.436,3.568-6.419,7.118-6.419s6.532,2.983,7.137,6.419Z" transform="translate(-115.2 -269)" fill="#707070"/>
    <path id="Path_43" data-name="Path 43" d="M259.5,269a10.009,10.009,0,0,0,0,20.013,9.784,9.784,0,0,0,7.873-4.04,1.3,1.3,0,0,0-2.058-1.586.018.018,0,0,1-.019.019,7.252,7.252,0,0,1-5.8,3.077,7.387,7.387,0,0,1-7.118-6.174h15.651a1.318,1.318,0,0,0,1.284-1.322A9.92,9.92,0,0,0,259.5,269Zm-7.118,8.93c.6-3.436,3.568-6.419,7.118-6.419s6.532,2.983,7.137,6.419Z" transform="translate(-206.623 -269)" fill="#707070"/>
    <path id="Path_44" data-name="Path 44" d="M363.479,272.912a3.148,3.148,0,0,0-5.7,0l-8.137,15.557a1.3,1.3,0,0,0,.529,1.756h0a1.363,1.363,0,0,0,.6.151,1.285,1.285,0,0,0,1.152-.7l2.284-4.38h9.383a1.289,1.289,0,0,0,1.284-1.3h0a1.291,1.291,0,0,0-1.34-1.246l-8.024.019,4.512-8.987a.705.705,0,0,1,.566-.434.732.732,0,0,1,.566.434l8.156,15.878a1.287,1.287,0,0,0,1.718.566c.019,0,.019-.019.038-.019a1.448,1.448,0,0,0,.491-1.869Z" transform="translate(-287.57 -270.704)" fill="#707070"/>
  </g>
</svg>
