<svg xmlns="http://www.w3.org/2000/svg" width="131.447" height="28.078" viewBox="0 0 131.447 28.078">
  <g id="Group_332" data-name="Group 332" transform="translate(0)">
    <g id="Group_331" data-name="Group 331" transform="translate(36.48 4.375)">
      <path id="Path_45" data-name="Path 45" d="M197.638,295.789l-.784,2.22h-.065a15.733,15.733,0,0,0-.762-2.177l-4.2-10.557h-4.114V302.1h2.721V291.719c0-.653,0-1.393-.022-2.307-.022-.457-.065-.805-.087-1.067h.065a10.194,10.194,0,0,0,.392,1.437l5.05,12.276h1.915l5.006-12.385a13.175,13.175,0,0,0,.327-1.328h.065c-.065,1.241-.109,2.351-.131,3.026v10.665h2.9v-16.8h-3.962Zm11.014-5.812h2.83v12.058h-2.83Zm1.437-5.093a1.7,1.7,0,0,0-1.2.479,1.6,1.6,0,0,0,0,2.329,1.677,1.677,0,0,0,1.2.457,1.735,1.735,0,0,0,1.2-.457,1.531,1.531,0,0,0,.5-1.154,1.614,1.614,0,0,0-.5-1.175,1.587,1.587,0,0,0-1.2-.479m11.427,4.985a7.879,7.879,0,0,0-1.589-.174,6.829,6.829,0,0,0-3.439.849,5.685,5.685,0,0,0-2.264,2.329,7.4,7.4,0,0,0-.783,3.483,6.46,6.46,0,0,0,.762,3.113,5.218,5.218,0,0,0,2.133,2.155,6.28,6.28,0,0,0,3.113.762,6.843,6.843,0,0,0,3.417-.805l.022-.022v-2.612l-.109.087a4.862,4.862,0,0,1-1.371.718,4.19,4.19,0,0,1-1.35.261,3.339,3.339,0,0,1-2.655-1.045,4.015,4.015,0,0,1-.979-2.851,4.115,4.115,0,0,1,1-2.938,3.493,3.493,0,0,1,2.656-1.088,4.633,4.633,0,0,1,2.7.914l.109.087v-2.764l-.022-.022a6.559,6.559,0,0,0-1.35-.435m9.338-.087a2.985,2.985,0,0,0-1.915.675,4.06,4.06,0,0,0-1.088,1.632h-.022v-2.111H225v12.058h2.83v-6.16a4.153,4.153,0,0,1,.7-2.547,2.181,2.181,0,0,1,1.828-.98,7.007,7.007,0,0,1,.849.109,2.236,2.236,0,0,1,.675.283l.109.087V290l-.065-.022a2.149,2.149,0,0,0-1.067-.2m7.705-.065a6.24,6.24,0,0,0-4.68,1.741A6.483,6.483,0,0,0,232.2,296.2a6.2,6.2,0,0,0,1.654,4.506,6.8,6.8,0,0,0,9.011-.109,6.462,6.462,0,0,0,1.676-4.68,6.3,6.3,0,0,0-1.589-4.549,5.729,5.729,0,0,0-4.4-1.654m2.264,9.272a2.853,2.853,0,0,1-2.373,1,2.973,2.973,0,0,1-2.438-1.045,4.3,4.3,0,0,1-.871-2.9,4.57,4.57,0,0,1,.871-2.96,2.994,2.994,0,0,1,2.416-1.045,2.893,2.893,0,0,1,2.351,1,4.464,4.464,0,0,1,.871,2.938,5.036,5.036,0,0,1-.827,3m10.034-4.005a6.781,6.781,0,0,1-1.72-.892,1.236,1.236,0,0,1-.326-.914,1.011,1.011,0,0,1,.457-.871,2.1,2.1,0,0,1,1.241-.326,5.642,5.642,0,0,1,1.458.217,3.755,3.755,0,0,1,1.262.588l.109.087v-2.655l-.065-.022a7.86,7.86,0,0,0-1.284-.37,8.722,8.722,0,0,0-1.393-.13,5.044,5.044,0,0,0-3.33,1.045,3.218,3.218,0,0,0-1.284,2.656,3.456,3.456,0,0,0,.283,1.48,3.3,3.3,0,0,0,.871,1.132,7.594,7.594,0,0,0,1.741.98c.653.283,1.154.5,1.458.675a2.952,2.952,0,0,1,.653.522,1.238,1.238,0,0,1,.174.675c0,.805-.609,1.2-1.85,1.2a4.889,4.889,0,0,1-1.567-.283,6.061,6.061,0,0,1-1.589-.805l-.109-.087v2.764l.065.022a8.451,8.451,0,0,0,1.524.479,9.726,9.726,0,0,0,1.632.2,5.3,5.3,0,0,0,3.5-1.045,3.333,3.333,0,0,0,1.328-2.742,3.052,3.052,0,0,0-.7-2.068,8.828,8.828,0,0,0-2.547-1.5m10.709-5.267a6.24,6.24,0,0,0-4.68,1.741,6.574,6.574,0,0,0-1.676,4.745,6.2,6.2,0,0,0,1.654,4.506,6.8,6.8,0,0,0,9.011-.109,6.461,6.461,0,0,0,1.676-4.68,6.3,6.3,0,0,0-1.589-4.549,5.729,5.729,0,0,0-4.4-1.654m2.242,9.272a2.853,2.853,0,0,1-2.373,1A2.945,2.945,0,0,1,259,298.945a4.3,4.3,0,0,1-.871-2.9,4.57,4.57,0,0,1,.871-2.96,2.993,2.993,0,0,1,2.416-1.045,2.923,2.923,0,0,1,2.351,1,4.464,4.464,0,0,1,.871,2.938,4.75,4.75,0,0,1-.827,3" transform="translate(-187.712 -283.992)" fill="#707070"/>
      <path id="Path_46" data-name="Path 46" d="M582.841,288.965v-2.329H579.99v-3.57l-.087.022-2.7.805-.065.022v2.721h-4.266v-1.524a2.387,2.387,0,0,1,.479-1.589,1.69,1.69,0,0,1,1.328-.522,3.178,3.178,0,0,1,1.263.283l.109.065v-2.46l-.065-.022a5.443,5.443,0,0,0-3.853.3,3.777,3.777,0,0,0-1.545,1.545,4.455,4.455,0,0,0-.566,2.242v1.676H568.04v2.307h1.981v9.751h2.851v-9.729h4.266v6.2c0,2.547,1.2,3.831,3.592,3.831a7.458,7.458,0,0,0,1.2-.131,3.919,3.919,0,0,0,.892-.283l.022-.022v-2.329l-.109.087a1.837,1.837,0,0,1-.588.261,2,2,0,0,1-.566.087,1.508,1.508,0,0,1-1.241-.457,2.358,2.358,0,0,1-.392-1.545v-5.7Z" transform="translate(-487.875 -280.65)" fill="#707070"/>
    </g>
    <path id="Path_47" data-name="Path 47" d="M14.639,259.894H27.982v13.343H14.639Z" transform="translate(-14.639 -259.894)" fill="#707070"/>
    <path id="Path_48" data-name="Path 48" d="M84.55,259.894H97.893v13.343H84.55Z" transform="translate(-69.814 -259.894)" fill="#707070"/>
    <path id="Path_49" data-name="Path 49" d="M14.639,329.8H27.982v13.343H14.639Z" transform="translate(-14.639 -315.069)" fill="#707070"/>
    <path id="Path_50" data-name="Path 50" d="M84.55,329.8H97.893v13.343H84.55Z" transform="translate(-69.814 -315.069)" fill="#707070"/>
  </g>
</svg>
