<svg xmlns="http://www.w3.org/2000/svg" width="75.678" height="16.164" viewBox="0 0 75.678 16.164">
  <g id="Page-1" transform="translate(0)">
    <g id="Masterbrand_Logo_Monochrome_Dark_BG" transform="translate(0)">
      <path id="Fill-1" d="M84.695,16.164,76.532,7.825,84.188,0H78.18L70,7.825l8.187,8.339h6.508" transform="translate(-18.569)" fill="#707070" fill-rule="evenodd"/>
      <path id="Fill-2" d="M96,16.164h5.143V0H96Z" transform="translate(-25.466)" fill="#707070" fill-rule="evenodd"/>
      <path id="Fill-3" d="M64,16.164h5.143V0H64Z" transform="translate(-16.977)" fill="#707070" fill-rule="evenodd"/>
      <path id="Fill-4" d="M17.861,0h-.226L11.021,6.611,4.409,0H0V16.164H5.042V6.206l5.979,5.968L17,6.206v9.958h5.042V0H17.861" fill="#707070" fill-rule="evenodd"/>
      <path id="Fill-5" d="M55.756,0H49.942L46.72,4.408h0L44,8.131v8.033h4.985V8.6L55.756,0" transform="translate(-11.672)" fill="#707070" fill-rule="evenodd"/>
      <path id="Fill-6" d="M40.152.009,34,0l3.675,4.408L43.552,4.4,40.152.009" transform="translate(-9.019)" fill="#707070" fill-rule="evenodd"/>
    </g>
  </g>
</svg>
