<svg xmlns="http://www.w3.org/2000/svg" width="77.524" height="31.442" viewBox="0 0 77.524 31.442">
  <g id="Logo_1_" transform="translate(0)">
    <path id="Path_51" data-name="Path 51" d="M15.721,0A15.721,15.721,0,1,0,31.442,15.721,15.72,15.72,0,0,0,15.721,0Zm0,23.859a8.205,8.205,0,0,1-2.96-.551l-2.9,1.4.051-3.263a8.219,8.219,0,1,1,5.814,2.411Z" transform="translate(0)" fill="#707070"/>
    <g id="Group_334" data-name="Group 334" transform="translate(35.726 6.894)">
      <path id="Path_52" data-name="Path 52" d="M165.649,50.115H161.37V33.65h6.812a5.826,5.826,0,0,1,4.246,1.441,5.423,5.423,0,0,1,1.474,4.063,5.423,5.423,0,0,1-1.474,4.063,5.826,5.826,0,0,1-4.246,1.441h-2.533Zm0-8.909h1.419q2.358,0,2.358-2.052T167.069,37.1h-1.419Z" transform="translate(-161.37 -33.094)" fill="#707070"/>
      <path id="Path_53" data-name="Path 53" d="M229.153,35.809a5.368,5.368,0,0,0-1.4-.841A3.723,3.723,0,0,0,226.4,34.7a2.191,2.191,0,0,0-1.355.394,1.224,1.224,0,0,0-.525,1.027,1.013,1.013,0,0,0,.261.72,2.3,2.3,0,0,0,.689.491,5.766,5.766,0,0,0,.961.361c.356.1.711.21,1.058.328a6.637,6.637,0,0,1,3.068,1.866,4.613,4.613,0,0,1,.972,3.046,5.946,5.946,0,0,1-.425,2.294,4.789,4.789,0,0,1-1.244,1.758,5.777,5.777,0,0,1-2.008,1.136,8.338,8.338,0,0,1-2.7.4,9.918,9.918,0,0,1-5.787-1.855l1.835-3.449a7.447,7.447,0,0,0,1.9,1.266,4.564,4.564,0,0,0,1.857.414,2.207,2.207,0,0,0,1.561-.48,1.467,1.467,0,0,0,.514-1.091,1.486,1.486,0,0,0-.131-.644,1.388,1.388,0,0,0-.436-.5,3.484,3.484,0,0,0-.8-.425q-.491-.2-1.191-.436-.83-.262-1.627-.578a5.078,5.078,0,0,1-1.419-.841,3.924,3.924,0,0,1-1.005-1.322,4.672,4.672,0,0,1-.383-2.019,5.862,5.862,0,0,1,.4-2.216,4.932,4.932,0,0,1,1.136-1.7,5.035,5.035,0,0,1,1.791-1.1,6.79,6.79,0,0,1,2.369-.394,10.364,10.364,0,0,1,2.555.339,11.2,11.2,0,0,1,2.555.994Z" transform="translate(-206.529 -31.14)" fill="#707070"/>
      <path id="Path_54" data-name="Path 54" d="M284.1,47.254h-6.115l-.983,2.86H272.44l6.268-16.465h4.674l6.268,16.465h-4.565ZM282.967,44l-1.922-5.482L279.124,44Z" transform="translate(-247.85 -33.094)" fill="#707070"/>
    </g>
  </g>
</svg>
